<?xml version="1.0" standalone="no"?><!DOCTYPE svg PUBLIC "-//W3C//DTD SVG 1.1//EN" "http://www.w3.org/Graphics/SVG/1.1/DTD/svg11.dtd">
<svg t="1679832301259" class="icon" viewBox="0 0 1024 1024" version="1.1"
    xmlns="http://www.w3.org/2000/svg" p-id="2744"
    xmlns:xlink="http://www.w3.org/1999/xlink" width="200" height="200">
    <path d="M512 0C229.224296 0 0 229.224296 0 512s229.224296 512 512 512 512-229.224296 512-512S794.775704 0 512 0zM801.261037 668.86163c-21.731556 18.640593-49.948444-61.345185-54.006519-49.038222-9.879704 29.923556-14.506667 49.929481-43.633778 82.507852-1.554963 1.744593 33.659259 14.468741 43.633778 41.642667 9.557333 26.017185 28.141037 67.26163-93.487407 80.213333-71.35763 7.585185-122.936889-38.020741-128.075852-37.584593-9.53837 0.83437-5.290667 0-15.530667 0-8.38163 0-8.931556 0.606815-16.820148 0-2.161778-0.170667-25.884444 37.584593-131.963259 37.584593-82.223407 0-103.518815-51.749926-86.983111-80.213333 16.535704-28.463407 44.126815-36.750222 40.239407-41.263407-19.152593-22.186667-32.350815-45.909333-40.239407-67.356444-1.953185-5.347556-3.584-10.543407-4.873481-15.530667-2.996148-11.45363-25.884444 67.204741-50.460444 49.038222-24.576-18.166519-22.376296-64.417185-6.46637-108.676741 16.042667-44.619852 56.471704-87.589926 56.926815-97.071407 1.611852-35.290074-3.489185-41.14963 0-50.422519 7.755852-20.764444 17.199407-12.8 17.199407-23.570963 0-135.736889 100.864-245.76 225.28-245.76s225.28 110.042074 225.28 245.76c0 5.195852 13.520593 0 19.986963 23.570963 1.327407 4.873481 2.23763 23.665778 0.663704 50.422519-0.739556 12.856889 34.266074 28.501333 52.375704 97.071407C828.434963 628.754963 810.30637 661.105778 801.261037 668.86163z" fill="#68A5E1" p-id="2745"></path>
</svg>